HIERARCHY
ROOT SpineBase
{
  OFFSET 0.000000 0.000000 0.000000
  CHANNELS 6 Xposition Yposition Zposition Zrotation Xrotation Yrotation
  JOINT SpineMid
  {
    OFFSET 0.000000 31.756224 -0.000000
    CHANNELS 3 Zrotation Xrotation Yrotation
    JOINT SpineShoulder
    {
      OFFSET 0.057047 23.515499 -0.829810
      CHANNELS 3 Zrotation Xrotation Yrotation
      JOINT Neck
      {
        OFFSET -0.042358 7.767353 -0.617742
        CHANNELS 3 Zrotation Xrotation Yrotation
        JOINT Head
        {
          OFFSET -0.890445 12.264400 1.015802
          CHANNELS 3 Zrotation Xrotation Yrotation
          End Site
          {
            OFFSET 0 0 0
          }
        }
      }
      JOINT ShoulderLeft
      {
        OFFSET -10.356352 -4.683576 11.810457
        CHANNELS 3 Zrotation Xrotation Yrotation
        JOINT ElbowLeft
        {
          OFFSET 0.463941 -20.696180 -24.185526
          CHANNELS 3 Zrotation Xrotation Yrotation
          JOINT WristLeft
          {
            OFFSET -10.565053 -16.753284 22.237268
            CHANNELS 3 Zrotation Xrotation Yrotation
            JOINT HandLeft
            {
              OFFSET 0.205770 -5.132468 -7.125060
              CHANNELS 3 Zrotation Xrotation Yrotation
              JOINT HandTipLeft
              {
                OFFSET -0.409194 -0.531027 -0.629171
                CHANNELS 3 Zrotation Xrotation Yrotation
                End Site
                {
                  OFFSET 0 0 0
                }
              }
              JOINT ThumbLeft
              {
                OFFSET -0.029415 0.417630 -2.621283
                CHANNELS 3 Zrotation Xrotation Yrotation
                End Site
                {
                  OFFSET 0 0 0
                }
              }
            }
          }
        }
      }
      JOINT ShoulderRight
      {
        OFFSET -1.866887 -5.037468 -12.392115
        CHANNELS 3 Zrotation Xrotation Yrotation
        JOINT ElbowRight
        {
          OFFSET -7.050535 -27.270769 -2.249198
          CHANNELS 3 Zrotation Xrotation Yrotation
          JOINT WristRight
          {
            OFFSET -9.156241 -21.867575 2.385795
            CHANNELS 3 Zrotation Xrotation Yrotation
            JOINT HandRight
            {
              OFFSET -0.918584 -4.461736 2.480812
              CHANNELS 3 Zrotation Xrotation Yrotation
              JOINT HandTipRight
              {
                OFFSET -1.244955 -7.309897 3.178264
                CHANNELS 3 Zrotation Xrotation Yrotation
                End Site
                {
                  OFFSET 0 0 0
                }
              }
              JOINT ThumbRight
              {
                OFFSET 3.451729 -2.251427 -0.947607
                CHANNELS 3 Zrotation Xrotation Yrotation
                End Site
                {
                  OFFSET 0 0 0
                }
              }
            }
          }
        }
      }
    }
  }
  JOINT HipLeft
  {
    OFFSET -2.825229 -0.260693 -0.908840
    CHANNELS 3 Zrotation Xrotation Yrotation
    JOINT KneeLeft
    {
      OFFSET 5.333659 -28.186490 12.802346
      CHANNELS 3 Zrotation Xrotation Yrotation
      JOINT AnkleLeft
      {
        OFFSET 0.952439 -30.975535 5.677533
        CHANNELS 3 Zrotation Xrotation Yrotation
        JOINT FootLeft
        {
          OFFSET -5.326149 -3.407385 -6.503420
          CHANNELS 3 Zrotation Xrotation Yrotation
          End Site
          {
            OFFSET 0 0 0
          }
        }
      }
    }
  }
  JOINT HipRight
  {
    OFFSET 1.444988 1.370283 -5.614335
    CHANNELS 3 Zrotation Xrotation Yrotation
    JOINT KneeRight
    {
      OFFSET -9.641503 -26.377401 5.911376
      CHANNELS 3 Zrotation Xrotation Yrotation
      JOINT AnkleRight
      {
        OFFSET 5.660459 -34.286141 11.510070
        CHANNELS 3 Zrotation Xrotation Yrotation
        JOINT FootRight
        {
          OFFSET -6.041154 -3.767765 -6.399049
          CHANNELS 3 Zrotation Xrotation Yrotation
          End Site
          {
            OFFSET 0 0 0
          }
        }
      }
    }
  }
}
MOTION
Frames: 5
Frame Time: 0.033333
73.260567 63.632920 343.667430 -0.000000 -0.000000 47.776394 0.000000 0.000000 -47.776394 -0.000000 0.000000 0.000000 -0.000000 0.000000 0.000000 0.000000 0.000000 0.000000 -0.000000 0.000000 0.000000 -0.000000 0.000000 0.000000 -0.000000 0.000000 0.000000 -0.000000 0.000000 0.000000 0.000000 0.000000 0.000000 0.000000 0.000000 0.000000 -0.000000 0.000000 0.000000 -0.000000 0.000000 0.000000 -0.000000 0.000000 0.000000 -0.000000 0.000000 0.000000 0.000000 0.000000 0.000000 0.000000 0.000000 0.000000 0.000000 0.000000 -47.776394 -0.000000 0.000000 0.000000 -0.000000 0.000000 0.000000 0.000000 0.000000 0.000000 0.000000 0.000000 -47.776394 -0.000000 0.000000 0.000000 -0.000000 0.000000 0.000000 0.000000 0.000000 0.000000
72.824584 63.541970 343.462306 -0.506987 0.185990 47.387900 0.206375 -0.499037 -47.386179 -0.000000 0.000000 0.000000 -0.000000 0.000000 0.000000 0.000000 0.000000 0.000000 -0.000000 0.000000 0.000000 -0.000000 0.000000 0.000000 1.052309 0.516566 -1.435337 -2.895131 -2.652027 5.254859 0.000000 0.000000 0.000000 0.000000 0.000000 0.000000 -0.000000 0.000000 0.000000 -0.807042 -0.293662 0.032735 2.527149 2.342001 0.463560 -3.172940 -3.651432 -0.977107 0.000000 0.000000 0.000000 0.000000 0.000000 0.000000 0.802531 -1.679672 -46.866973 -1.269159 0.372047 -0.503751 -1.665054 -1.257332 5.112896 0.000000 0.000000 0.000000 0.383967 -1.623363 -46.939221 -2.797511 3.329003 -0.562898 -0.420097 -2.622709 3.821500 0.000000 0.000000 0.000000
72.428595 63.429541 343.295642 -0.923629 0.303694 46.928584 0.254167 -0.059797 -46.950278 0.706571 -0.448205 0.028781 -0.000000 0.000000 0.000000 0.000000 0.000000 0.000000 -0.000000 0.000000 0.000000 -0.000000 0.000000 0.000000 1.808948 -0.011832 -2.510106 -5.129865 -4.138397 9.667811 0.000000 0.000000 0.000000 0.000000 0.000000 0.000000 -0.000000 0.000000 0.000000 -1.489795 -0.557502 0.063260 4.995581 4.850942 0.841491 -6.489177 -7.341558 -2.186651 0.000000 0.000000 0.000000 0.000000 0.000000 0.000000 1.441070 -3.043654 -45.993341 -2.271723 0.758828 -0.879243 -2.902247 -2.699823 9.722034 0.000000 0.000000 0.000000 0.728682 -2.895959 -46.113819 -5.046728 6.194872 -0.898397 -0.859310 -4.948759 6.942164 0.000000 0.000000 0.000000
72.072598 63.295633 343.167439 -1.250202 0.353484 46.382901 0.354323 -0.032684 -46.411651 0.394405 -0.002475 -0.005473 0.588121 -0.584301 0.046566 0.000000 0.000000 0.000000 0.588121 -0.584301 0.046566 -0.000000 0.000000 0.000000 2.311189 -1.533465 -3.297147 -6.785452 -4.270428 13.218257 0.000000 0.000000 0.000000 0.000000 0.000000 0.000000 0.588121 -0.584301 0.046566 -2.055740 -0.794122 0.093187 7.289174 7.389021 1.093063 -9.728078 -10.806778 -3.547197 0.000000 0.000000 0.000000 0.000000 0.000000 0.000000 1.917510 -4.111104 -45.147104 -3.024563 1.158577 -1.135097 -3.636747 -4.214000 13.616938 0.000000 0.000000 0.000000 1.032427 -3.842913 -45.280079 -6.716852 8.487346 -1.073035 -1.392944 -6.816081 9.385666 0.000000 0.000000 0.000000
71.756595 63.140246 343.077695 -1.487145 0.335848 45.734599 0.435070 0.032163 -45.769412 0.524412 -0.004825 -0.003402 0.682633 -0.664055 0.054598 0.000000 0.000000 0.000000 0.682633 -0.664055 0.054598 -0.000000 0.000000 0.000000 2.579512 -4.122671 -3.841158 -7.944560 -2.809563 15.884503 0.000000 0.000000 0.000000 0.000000 0.000000 0.000000 0.682633 -0.664055 0.054598 -2.510257 -1.005674 0.123892 9.255831 9.759096 1.194600 -12.571934 -13.741169 -4.886454 0.000000 0.000000 0.000000 0.000000 0.000000 0.000000 2.230072 -4.897845 -44.317673 -3.539403 1.571743 -1.277488 -3.840454 -5.696063 16.647752 0.000000 0.000000 0.000000 1.291758 -4.482279 -44.418818 -7.775071 10.121672 -1.146376 -2.089447 -8.096326 11.195358 0.000000 0.000000 0.000000
